<svg width="960" height="960" viewBox="0 0 960 960" fill="none" xmlns="http://www.w3.org/2000/svg">
<path d="M496.689 732.644C487.799 735.785 473.156 735.785 464.266 732.644C388.438 706.726 219 598.603 219 415.345C219 334.449 284.108 269 364.382 269C411.971 269 454.069 292.038 480.478 327.643C506.887 292.038 549.246 269 596.574 269C676.848 269 741.956 334.449 741.956 415.345C741.956 598.603 572.518 706.726 496.689 732.644Z" fill="#44BDB6" stroke="#44BDB6" stroke-width="5" stroke-linecap="round" stroke-linejoin="round"/>
<path d="M392.677 424.883C391.522 424.772 389.61 426.622 388.494 427.199C387.626 427.647 385.7 428.622 384.751 428.611C384.146 428.604 382.847 427.966 382.219 427.769C381.89 427.88 381.619 427.976 381.349 428.201C380.857 428.612 380.522 429.133 380.485 429.785C380.423 430.892 381.361 431.702 382.073 432.414C383.231 433.229 384.593 433.71 386.008 433.797C388.011 433.92 390.219 433.351 391.721 431.983C393.01 430.809 393.618 429.254 393.65 427.529C393.67 426.472 393.417 425.641 392.677 424.883Z" fill="white"/>
<path d="M552.041 478.206L551.809 478.18C551.315 478.201 551.126 478.278 550.763 478.575C550.756 478.897 550.79 479.154 550.982 479.426C552.18 481.12 554.46 482.285 556.315 483.078C564.039 486.379 573.075 487.087 581.345 488.133C581.857 488.005 582.252 487.912 582.681 487.582L582.593 487.155C581.595 486.277 580.308 485.89 579.06 485.515C575.838 484.546 572.469 484.245 569.164 483.653C566.674 483.207 564.162 482.67 561.73 481.969C558.388 481.006 555.257 479.495 552.041 478.206Z" fill="white"/>
<path d="M390.295 359.013C390.01 358.971 389.705 358.923 389.417 358.952C388.824 359.01 388.203 359.453 387.874 359.936C387.087 361.091 387.25 362.585 387.084 363.903C386.879 365.522 386.591 367.199 386.244 368.792C385.437 372.5 384.203 376.055 382.916 379.617C382.31 381.296 380.595 384.667 381.011 386.32C381.374 386.777 381.685 386.861 382.218 387.021C382.618 387.125 382.894 387.161 383.3 387.049C384.461 386.73 385.226 385.872 385.82 384.877C386.754 383.313 387.309 381.634 387.94 379.935C389.249 376.415 390.228 372.804 390.943 369.118C391.35 367.025 391.845 364.18 391.297 362.086C390.994 360.928 391.22 359.882 390.295 359.013Z" fill="white"/>
<path d="M517.654 497.026L516.968 496.875C516.465 497.061 516.37 497.031 516.106 497.487C516.247 498.083 516.46 498.472 516.839 498.954C518.096 500.547 519.751 501.822 521.345 503.054C527.262 507.626 534.145 510.788 541.175 513.225C543.967 514.192 546.678 515.146 549.64 515.44L550.086 515.406C550.614 514.965 549.992 514.273 550.21 513.675C550.303 513.419 550.826 513.266 550.995 512.801C550.255 511.422 545.146 510.327 543.51 509.757C537.602 507.701 531.593 505.412 526.137 502.329C523.226 500.685 520.656 498.527 517.654 497.026Z" fill="white"/>
<path d="M345.184 363.441L344.74 363.378C344.396 363.504 344.146 363.614 343.866 363.856C343.121 364.496 342.767 365.054 342.664 366.024C342.986 367.232 343.785 368.24 344.43 369.293C346.799 373.155 348.801 377.332 350.711 381.441C351.926 384.055 353.058 386.794 354.52 389.281C355.106 390.277 355.886 390.977 356.744 391.727L357.431 392.075C357.945 392.281 358.261 392.452 358.776 392.244C358.957 391.383 358.712 390.576 358.525 389.734C358.109 387.867 357.49 386.05 356.846 384.251C355.267 379.835 353.416 375.461 351.287 371.283C349.881 368.522 348.102 364.825 345.184 363.441Z" fill="white"/>
<path d="M313.349 385.525L312.629 385.483C312.189 385.74 311.804 386.11 311.615 386.597C311.401 387.149 311.556 387.468 311.773 387.981C313.182 389.207 315.072 389.955 316.691 390.897C318.386 391.882 319.906 393.14 321.351 394.46C324.223 397.085 326.429 400.412 328.663 403.576C330.037 405.523 331.316 407.73 333.261 409.17C334.34 409.969 335.598 410.378 336.875 410.723C337.236 410.743 337.669 410.73 338.01 410.593C338.571 410.37 338.805 410.213 339.004 409.661C338.683 408.552 338.156 407.633 337.536 406.668C335.926 404.161 333.926 401.859 332.029 399.564C326.905 393.366 321.541 387.322 313.349 385.525Z" fill="white"/>
<path d="M582.832 490.937C582.01 490.684 581.368 490.894 580.575 491.178C579.04 491.728 577.647 492.803 576.143 493.482C572.443 495.153 568.214 496.218 564.225 496.942C555.635 498.502 546.573 497.839 538.139 495.709C536.773 495.363 535.412 494.997 534.073 494.555C532.258 493.956 530.54 493.264 528.597 493.412L528.495 493.705C528.888 494.585 529.616 494.951 530.394 495.458C533.974 497.51 537.735 499.006 541.761 499.937C551.155 502.108 560.932 501.536 570.129 498.767C573.551 497.736 576.828 496.558 579.863 494.634C581.077 493.865 582.766 492.763 583.099 491.306L582.832 490.937Z" fill="white"/>
<path d="M622.039 454.22C621.482 454.299 620.746 454.803 620.246 455.082C618.96 455.796 617.704 456.571 616.358 457.172C614.684 457.92 612.799 458.449 611.019 458.889C609.9 463.208 607.966 466.234 604.51 469.109C597.788 474.703 586.61 476.226 578.127 475.484C572.918 475.028 567.852 473.858 562.659 473.341C563.659 474.508 564.59 475.317 565.862 476.16L569.101 477.652C579.751 481.766 593.075 482.695 603.633 477.946C609.754 475.192 614.977 470.813 618.642 465.187C619.625 463.679 620.54 462.254 621.179 460.565C621.846 458.804 622.865 456.051 622.039 454.22Z" fill="white"/>
<path d="M535.515 566.032C535.182 565.929 535.029 565.94 534.689 565.966C534.115 566.291 533.887 566.5 533.519 567.047C533.453 567.614 533.436 568.095 533.671 568.627C534.5 570.51 535.992 572.195 537.169 573.871C539.296 576.899 541.404 579.956 543.438 583.049C547.332 588.969 551.137 594.951 554.982 600.904C559.436 607.801 563.673 614.779 568.967 621.085C571.502 624.105 574.547 627.514 578.304 628.971C580.078 629.659 581.473 629.494 583.189 628.767C584.363 627.97 585.197 627.046 586.119 625.977L585.451 626.034C584.953 626.073 584.401 626.145 583.91 626.029C583.14 625.848 582.303 625.241 581.637 624.82C579.729 623.612 578.162 622.088 576.578 620.491C572.324 616.204 568.841 611.168 565.407 606.224C562.896 602.609 560.346 599.007 557.761 595.443C553.067 588.973 548.24 582.591 543.534 576.128C541.969 573.98 540.505 571.781 538.905 569.655C537.874 568.284 536.991 566.966 535.515 566.032Z" fill="white"/>
<path d="M647.431 423.793C645.186 425.963 642.404 428.096 639.634 429.527C638.434 430.148 637.179 430.559 635.961 431.13C635.871 431.173 635.298 431.417 635.269 431.458C635.116 431.673 635.053 433.029 634.985 433.381C634.444 436.179 632.841 439.198 630.6 441.036C626.618 444.3 622.103 446.51 617.3 448.305C606.381 452.386 595.499 453.49 583.934 453.48C580.698 453.478 577.308 453.63 574.099 453.234L573.826 453.199C574.584 453.984 575.278 454.585 576.209 455.16C580.324 457.307 586.172 457.359 590.75 457.522C599.146 457.821 607.481 456.216 615.601 454.333C618.532 453.654 621.359 453.09 624.156 451.927C629.197 449.832 633.851 446.878 637.82 443.125C643.274 437.966 647.236 431.411 647.431 423.793Z" fill="white"/>
<path d="M649.941 406.668C648.169 408.416 646.45 410.175 644.421 411.634C641.089 414.03 637.28 416.003 633.657 417.928C626.791 421.575 619.616 425.188 612.31 427.863C607.191 429.738 602.02 431.065 596.803 432.594C595.419 433 593.81 433.606 593.092 434.939C593.069 435.777 592.969 435.844 593.544 436.507C594.271 436.977 595.195 436.975 596.034 436.974C599.057 436.971 602.109 436.513 605.1 436.102C611.331 435.244 617.343 433.858 623.379 432.121C630.616 430.037 639.28 427.23 644.659 421.704C648.749 417.502 649.969 412.367 649.941 406.668Z" fill="white"/>
<path d="M395.503 409.568C387.529 409.429 379.85 410.747 372.895 414.83C368.728 417.276 365.195 420.417 362.345 424.312C361.231 425.836 360.08 427.628 359.643 429.483C359.405 430.496 359.247 432.001 359.791 432.88C360.662 432.731 361.31 431.135 361.734 430.406C363.657 427.096 366.211 424.462 369.069 421.942C377.925 414.133 390.124 412.419 401.515 413.209C415.551 414.184 427.213 420.166 437.346 429.743C440.152 432.396 442.693 435.308 445.242 438.204C450.159 443.995 455.238 449.596 460.485 455.089C462.582 457.285 464.653 459.457 466.873 461.536C468.397 462.963 470.177 464.612 472.159 465.363C472.647 465.549 472.753 465.626 473.221 465.417C473.463 465.065 473.603 464.9 473.639 464.458C473.694 463.763 472.343 462.73 471.834 462.25C460.909 451.971 452.053 439.819 441.617 429.087C432.032 419.231 419.817 411.986 406.053 410.078C402.573 409.596 399.011 409.62 395.503 409.568Z" fill="white"/>
<path d="M417.615 496.841L417.38 496.866C417.099 496.932 416.693 497.144 416.539 497.379C416.23 497.853 416.235 498.498 416.331 499.043C416.805 501.719 418.826 504.289 420.188 506.595C423.341 511.932 426.907 516.812 430.684 521.718C439.137 532.698 448.819 542.615 460.012 550.814C476.218 562.687 494.905 570.381 514.101 575.907C520.093 577.633 527.273 579.869 533.57 578.904L534.504 578.503C534.995 578.187 535.118 577.719 535.277 577.195C534.553 576.534 531.215 576.571 530.013 576.337C523.943 575.151 517.951 573.67 512.004 571.974C494.389 566.954 477.447 559.432 462.638 548.564C453.669 541.982 445.078 533.592 438.121 524.897C434.359 520.195 430.737 515.36 427.396 510.349C424.811 506.471 422.485 502.312 419.644 498.62C419.039 497.832 418.554 497.208 417.615 496.841Z" fill="white"/>
<path d="M359.146 434.81C353.769 434.687 348.311 436.216 344.305 439.955C342.781 441.377 341.61 442.967 339.958 444.301C345.484 449.156 352.172 451.65 359.436 452.262C360.408 452.343 362.131 451.87 362.923 452.243C365.316 453.37 367.524 455.535 369.767 457.021C374.379 460.076 379.108 462.506 384.2 464.649L393.368 467.689L394.978 466.041L365.706 450.859C367.121 450.213 368.797 449.768 370.113 448.96C371.119 448.342 371.9 447.148 372.121 445.992C372.468 444.174 371.175 442.028 370.123 440.618C367.683 437.348 363.08 435.354 359.146 434.81Z" fill="white"/>
<path d="M554.653 581.9L554.245 581.793C553.484 582.012 552.852 582.721 552.267 583.24C555.351 586.823 559.937 589.668 563.706 592.491C572.172 598.832 580.819 604.933 589.235 611.341C598.893 618.694 608.432 626.228 617.624 634.16C620.158 636.346 622.491 638.762 625.037 640.96C623.164 641.98 620.51 643.67 618.308 643.632C617.289 643.614 616.173 643.05 615.29 642.584C610.003 639.793 606.445 634.168 602.863 629.57C601.218 627.459 599.488 625.419 597.832 623.319C595.457 620.31 592.427 615.678 588.558 614.608C587.259 614.249 586.607 614.36 585.451 615.082C584.259 615.827 583.542 616.982 583.24 618.333C582.727 620.625 583.694 622.216 584.9 624.054C585.688 623.107 586.495 622.482 587.504 621.794C589.532 623.255 591.259 625.248 592.974 627.057C595.986 630.318 599.117 633.466 602.135 636.721C604.01 638.742 605.849 640.796 607.722 642.819C608.396 643.547 609.237 644.68 610.077 645.2C613.033 647.031 616.557 647.076 619.846 646.235C623.156 645.389 626.922 643.199 630.377 643.531C632.402 643.727 634.342 644.315 636.349 644.525C640.698 644.981 644.134 643.848 647.526 641.174C644.116 640.768 640.606 642.215 637.14 641.481C633.3 640.669 629.873 638.844 626.614 636.701C620.199 632.482 614.577 627.088 608.579 622.321C604.391 618.992 600.231 615.613 595.973 612.372C587.691 606.069 579.183 600.072 570.797 593.908C567.835 591.731 564.817 589.587 561.902 587.348C559.527 585.523 557.199 583.481 554.653 581.9Z" fill="white"/>
<path d="M646.413 402.557C646.237 402.511 646.195 402.492 645.987 402.487C644.247 402.448 641.956 403.263 640.36 403.877C636.432 405.389 632.723 407.426 628.932 409.235C622.783 412.17 616.592 414.976 610.295 417.58C603.085 420.561 595.735 423.331 588.372 425.915C571.748 431.749 555.063 437.41 538.427 443.22C527.648 446.984 516.747 450.562 506.133 454.773C501.025 456.8 495.811 458.787 491.003 461.466C489.851 462.108 488.343 462.789 487.434 463.752L487.803 463.962C491.554 464.389 495.911 463.885 499.553 462.897C506.415 461.035 513.111 458.224 519.776 455.754C530.627 451.733 541.483 447.726 552.321 443.67C562.703 439.784 573.106 435.943 583.537 432.192C592.395 429.008 601.291 425.963 609.985 422.343C621.213 417.668 631.954 412.147 642.376 405.89C643.492 405.22 646.345 403.991 646.82 402.84L646.413 402.557Z" fill="white"/>
<path d="M489.947 466.951C489.665 466.885 489.671 466.84 489.421 466.926C488.437 467.264 487.725 468.328 487.279 469.213C486.409 470.944 486.285 472.69 486.33 474.594C486.452 479.731 487.91 485.188 489.468 490.065C492.816 500.545 497.997 510.318 504.414 519.24C507.25 523.183 510.449 526.949 513.537 530.699C518.76 537.041 524.078 543.273 529.629 549.333C532.467 552.432 535.433 555.419 538.316 558.477C541.621 561.982 544.21 566.078 547.726 569.388C550.191 571.708 553.09 573.654 555.807 575.665C558.699 577.805 561.54 580.038 564.368 582.263C569.192 586.061 573.933 589.975 578.838 593.67C590.604 602.535 602.709 610.979 614.74 619.481C617.761 621.616 620.813 623.719 623.788 625.917C627 628.289 630.179 630.773 633.53 632.947C636.039 634.575 638.801 636 641.459 637.372C642.753 638.039 645.469 639.421 646.903 638.856C647.275 638.711 647.21 638.684 647.363 638.36C646.976 638.109 646.65 637.832 646.304 637.529L646.457 637.413L648.463 637.779C649.086 637.876 649.492 637.902 650.009 637.529L649.968 637.068C648.227 634.338 644.023 632.667 641.288 631.044C638.27 629.251 635.089 627.345 632.245 625.301C629.972 623.719 627.543 622.289 625.229 620.762C617.818 615.87 610.4 610.887 603.171 605.733C600.63 603.922 598.16 601.977 595.644 600.131C586.202 593.204 576.784 586.231 567.854 578.639C564.843 576.079 562.028 573.251 559.118 570.574C548.577 560.878 538.256 550.769 528.656 540.138C524.969 536.056 521.375 531.716 518.048 527.337C517.22 526.246 515.377 524.24 515.449 522.857C517.254 521.936 521.31 522.893 523.321 523.042C525.046 523.17 526.806 523.174 528.535 523.142C535.673 523.007 543.326 522.009 549.729 518.733C549.006 518.264 547.733 517.847 546.864 517.861C543.622 517.913 540.365 518.953 537.187 519.518C533.296 520.209 529.043 520.422 525.09 520.203C517.402 519.777 510.468 517.866 505.192 511.921C503.091 509.554 501.406 506.724 499.825 504C493.367 492.87 489.255 479.907 489.947 466.951Z" fill="white"/>
</svg>
